<?xml version="1.0" encoding="utf-8"?>
<!-- Generator: Adobe Illustrator 23.0.2, SVG Export Plug-In . SVG Version: 6.00 Build 0)  -->
<svg version="1.1" id="Layer_1" xmlns="http://www.w3.org/2000/svg" xmlns:xlink="http://www.w3.org/1999/xlink" x="0px" y="0px"
	 viewBox="0 0 100 100" style="enable-background:new 0 0 100 100;" xml:space="preserve">
<style type="text/css">
	.st0{fill-rule:evenodd;clip-rule:evenodd;}
	.st1{fill:#FFFFFF;}
</style>
<g>
	<path class="st0" d="M19.4,97.9V80.3c0-10.9,5.9-21.2,15.3-26.8c1.2-0.7,1.8-1.9,1.8-3.2c0-1.6-0.8-2.6-1.5-3.1
		c-6-4.7-9.4-11.8-9.4-19.5c0-1.2,0.1-2.4,0.3-3.5c0.2-1.2,0.1-2.6-0.3-4L21.2,3.7L33.5,7c0.6,0.2,1.1,0.2,1.5,0.2
		c1.1,0,2.2-0.3,3.1-0.9c3.7-2.2,8-3.3,12.4-3.3c4.4,0,8.7,1.2,12.4,3.4c1,0.6,2,0.9,3,0.9c0.4,0,0.9,0,1.5-0.2l12.4-3.3l-4.5,17
		c-0.4,1.3-0.3,2.8-0.3,3.8l0,0.1c0.2,1,0.3,2.2,0.3,3.3c0,7.7-3.5,14.8-9.5,19.5c-0.9,0.8-1.4,1.8-1.4,3c0,1.2,0.7,2.4,1.8,3.1
		c9.5,5.6,15.3,15.9,15.3,26.8v17.6H19.4z"/>
	<path class="st1" d="M50.5,5c4.1,0,8,1.1,11.4,3.1l0,0l0,0c1.3,0.7,2.6,1.1,4,1.1c0.4,0,1.2,0,2.1-0.3l9-2.4l-3.6,13.6
		c-0.5,1.7-0.4,3.4-0.3,4.5l0,0.1l0,0.1c0.2,0.9,0.2,2,0.2,3c0,7.1-3.2,13.6-8.7,18l-0.1,0l-0.1,0c-1.4,1.1-2.1,2.7-2.1,4.5
		c0,1.9,1,3.7,2.8,4.8c8.9,5.2,14.4,14.8,14.4,25.1v15.6H21.4V80.3c0-10.2,5.5-19.8,14.4-25.1c1.8-1.1,2.8-2.9,2.8-4.9
		c0-2.5-1.4-4-2.3-4.6c-5.5-4.3-8.7-10.9-8.7-17.9c0-1.1,0.1-2.2,0.2-3.2c0.3-1.6,0.2-3.2-0.3-4.8L24,6.5l9,2.4
		c0.8,0.3,1.6,0.3,2.1,0.3c1.5,0,3-0.4,4.1-1.2C42.5,6,46.5,5,50.5,5 M82.7,0.9L66.9,5.1c-0.3,0.1-0.7,0.1-1,0.1
		c-0.7,0-1.3-0.2-2-0.6C59.9,2.2,55.2,1,50.5,1c-4.7,0-9.4,1.2-13.4,3.6c-0.6,0.4-1.3,0.6-2,0.6c-0.4,0-0.7,0-1-0.1L18.3,0.9
		l5.4,20.1c0.3,1,0.4,2,0.2,3.1c-0.2,1.2-0.3,2.6-0.3,3.8c0,8.3,3.7,16,10.3,21.1c0.7,0.5,0.7,1.2,0.7,1.4c0,0.7-0.4,1.2-0.9,1.4
		c-10.1,6-16.3,16.9-16.3,28.5v19.6h66.2V80.3c0-11.6-6.2-22.6-16.3-28.5c-0.5-0.3-0.9-0.8-0.9-1.3c0-0.4,0.1-1,0.7-1.4
		c6.5-5.1,10.3-12.8,10.3-21.1c0-1.2-0.1-2.5-0.3-3.6c-0.1-1.1-0.1-2.1,0.2-3.1L82.7,0.9L82.7,0.9z"/>
</g>
</svg>
